<?xml version="1.0" standalone="no"?>
<!DOCTYPE svg PUBLIC "-//W3C//DTD SVG 20010904//EN"
 "http://www.w3.org/TR/2001/REC-SVG-20010904/DTD/svg10.dtd">
<svg version="1.0" xmlns="http://www.w3.org/2000/svg"
 width="302.000000pt" height="191.000000pt" viewBox="0 0 302.000000 191.000000"
 preserveAspectRatio="xMidYMid meet">

<g transform="translate(0.000000,191.000000) scale(0.100000,-0.100000)"
fill="#000000" stroke="none">
<path d="M430 1838 c0 -10 -4 -18 -10 -18 -5 0 -10 -5 -10 -10 0 -6 -5 -17
-12 -24 -10 -11 -15 -11 -25 0 -7 7 -13 15 -13 19 0 8 -26 35 -34 35 -3 0 -6
-6 -6 -13 0 -8 -8 -23 -18 -35 l-18 -20 -22 25 c-12 14 -22 29 -22 34 0 16
-20 10 -27 -8 -3 -10 -14 -26 -25 -36 -17 -17 -19 -16 -35 18 -16 34 -19 36
-63 33 l-45 -3 0 -60 0 -60 67 -3 c48 -2 74 2 91 13 22 14 26 14 37 0 11 -13
59 -15 339 -15 l326 0 98 -186 c54 -102 96 -188 93 -191 -2 -2 -30 44 -62 104
-31 59 -76 142 -98 183 l-42 75 -409 2 c-298 2 -411 -1 -416 -9 -13 -21 0
-201 17 -225 l14 -23 394 0 394 0 53 -75 54 -74 247 -1 c188 0 247 3 251 13 3
10 9 10 26 0 15 -10 86 -13 260 -13 l239 0 67 75 67 75 392 0 c361 0 393 1
406 18 12 13 14 39 10 122 l-5 105 -412 3 -411 2 -63 -117 c-34 -65 -70 -132
-79 -149 -10 -16 -25 -45 -34 -63 -10 -18 -20 -31 -23 -28 -3 3 21 54 53 114
32 59 75 140 95 178 l37 70 330 5 c240 4 333 8 344 17 12 10 18 10 34 -2 12
-9 43 -14 82 -15 52 0 62 3 63 18 0 9 2 40 4 67 l3 50 -41 -4 c-40 -3 -67 -20
-67 -40 0 -20 -22 -23 -35 -5 -7 11 -12 21 -10 24 2 3 -5 11 -16 18 -15 10
-19 10 -19 -1 0 -8 -8 -24 -19 -35 -17 -21 -19 -21 -35 -4 -9 10 -16 23 -16
29 0 24 -27 19 -46 -8 -22 -33 -44 -45 -44 -24 0 8 -4 15 -10 15 -5 0 -10 5
-10 11 0 6 -7 17 -15 25 -13 14 -16 13 -25 -10 -5 -14 -14 -26 -20 -26 -5 0
-10 -7 -10 -15 0 -23 -29 -6 -36 21 -3 13 -12 28 -19 34 -10 8 -17 2 -31 -29
-20 -45 -34 -44 -60 4 l-18 33 -20 -26 c-11 -15 -26 -33 -33 -40 -14 -14 -33
-8 -33 10 0 6 -8 16 -17 23 -19 14 -53 0 -53 -22 0 -26 -23 -23 -50 7 -34 38
-43 33 -74 -37 -11 -24 -23 -43 -28 -43 -5 0 -6 -4 -3 -10 3 -5 1 -10 -5 -10
-6 0 -8 -5 -5 -10 3 -5 1 -10 -5 -10 -6 0 -9 -4 -6 -9 4 -5 3 -11 -1 -13 -5
-1 -21 -31 -37 -65 -16 -35 -34 -63 -38 -63 -5 0 -6 -4 -3 -10 3 -5 2 -10 -3
-10 -4 0 -19 -25 -31 -55 -13 -30 -27 -55 -33 -55 -5 0 -7 -3 -5 -7 3 -5 -3
-16 -12 -25 -17 -17 -18 -16 -36 20 l-18 37 -9 -27 c-5 -16 -14 -28 -19 -28
-6 0 -7 -4 -4 -10 3 -5 -1 -10 -9 -10 -8 0 -18 10 -22 22 -7 22 -32 54 -38 47
-1 -2 -8 -19 -15 -36 -15 -37 -28 -42 -38 -15 -4 9 -15 26 -25 36 -17 19 -18
19 -24 -12 -3 -17 -13 -33 -21 -36 -8 -3 -11 -1 -8 4 3 6 2 10 -4 10 -5 0 -13
12 -18 27 l-9 26 -26 -44 -26 -44 -23 39 c-24 41 -23 41 -56 -11 -10 -16 -12
-15 -23 15 -7 17 -15 32 -18 32 -15 0 -30 -16 -36 -37 -9 -27 -29 -21 -45 14
-12 25 -12 25 -30 7 -10 -11 -18 -23 -17 -28 0 -5 -5 -11 -11 -13 -7 -3 -13 0
-13 7 0 6 -9 20 -19 32 l-20 20 -19 -31 c-18 -30 -21 -31 -36 -16 -9 9 -16 25
-16 35 0 10 -4 20 -9 22 -10 4 -74 128 -65 128 3 0 -2 7 -10 16 -9 8 -14 19
-11 24 3 5 1 10 -4 12 -5 1 -34 54 -65 116 l-57 114 -44 -37 c-32 -26 -45 -32
-45 -21 0 9 -5 16 -10 16 -6 0 -16 11 -22 25 -13 29 -26 32 -35 8 -6 -18 -38
-53 -48 -53 -3 0 -5 7 -5 15 0 8 -3 15 -8 15 -4 0 -15 12 -23 26 l-16 27 -23
-42 c-26 -45 -39 -51 -47 -21 -3 11 -9 20 -13 20 -5 0 -12 10 -16 22 l-6 21
-19 -24 c-10 -13 -19 -30 -19 -36 0 -14 -30 -18 -30 -5 0 5 -11 22 -25 38 -19
23 -25 25 -25 12z"/>
<path d="M122 1398 l3 -33 379 0 378 0 24 -30 c49 -60 94 -125 86 -125 -4 0
-31 32 -60 70 -29 39 -57 70 -62 70 -7 0 -10 -216 -10 -610 0 -363 4 -610 9
-610 5 0 30 9 56 20 26 11 55 20 66 20 18 0 19 11 19 290 l0 290 104 0 103 0
5 63 c14 167 127 277 285 277 156 0 275 -114 287 -275 l4 -60 106 -3 106 -3 0
-222 c0 -122 3 -251 6 -287 l6 -65 52 -18 c28 -10 56 -19 61 -20 7 -1 11 204
13 596 1 328 -2 597 -6 597 -5 0 -32 -29 -62 -65 -29 -36 -55 -63 -58 -60 -3
2 1 13 9 22 8 10 38 45 66 78 l51 61 379 -1 c208 -1 381 3 384 8 3 4 4 19 1
33 l-4 24 -373 0 -373 0 -72 -80 -72 -80 -511 1 -512 0 -59 80 -60 79 -379 0
-378 0 3 -32z m208 -9 c0 -5 -7 -9 -15 -9 -15 0 -20 12 -9 23 8 8 24 -1 24
-14z m537 -5 c-9 -9 -28 6 -21 18 4 6 10 6 17 -1 6 -6 8 -13 4 -17z m1472 -3
c-15 -5 -22 6 -14 19 6 9 10 9 16 -1 5 -8 4 -15 -2 -18z m540 0 c-15 -5 -22 6
-14 19 6 9 10 9 16 -1 5 -8 4 -15 -2 -18z m-1264 -225 c132 -35 217 -119 250
-246 l11 -45 70 -6 69 -5 -76 -2 -77 -2 -7 38 c-17 93 -70 170 -152 217 -59
35 -166 58 -233 51 -149 -18 -284 -139 -306 -275 l-7 -41 -76 2 -76 2 69 5 69
6 12 45 c17 66 41 111 83 154 45 48 104 85 157 102 53 17 158 17 220 0z m502
-38 c-3 -8 -6 -5 -6 6 -1 11 2 17 5 13 3 -3 4 -12 1 -19z m-22 2 c3 -5 -1 -10
-9 -10 -9 0 -16 5 -16 10 0 6 4 10 9 10 6 0 13 -4 16 -10z m-1159 -9 c-7 -11
-46 -21 -46 -12 0 13 13 21 32 21 11 0 17 -4 14 -9z m-13 -43 c-25 -12 -32
-31 -8 -22 8 4 15 1 15 -5 0 -6 -4 -11 -10 -11 -21 0 -9 -20 13 -21 21 0 21
-1 2 -9 -26 -10 -34 -1 -42 43 -5 36 -4 37 23 36 28 0 28 -1 7 -11z m342 -58
c3 -5 1 -10 -4 -10 -6 0 -11 5 -11 10 0 6 2 10 4 10 3 0 8 -4 11 -10z m840
-60 c3 -5 -1 -10 -9 -10 -9 0 -16 5 -16 10 0 6 4 10 9 10 6 0 13 -4 16 -10z
m-5 -304 c0 -3 -4 -8 -10 -11 -5 -3 -10 -1 -10 4 0 6 5 11 10 11 6 0 10 -2 10
-4z m-1170 -101 c4 -36 0 -44 -15 -39 -18 7 -20 31 -4 36 9 3 9 10 -1 28 -11
22 -11 23 3 10 8 -8 16 -24 17 -35z m1190 -57 c0 -4 -7 -8 -15 -8 -8 0 -15 4
-15 8 0 5 7 9 15 9 8 0 15 -4 15 -9z m-1200 -23 c0 -8 -4 -15 -10 -15 -5 0 -7
7 -4 15 4 8 8 15 10 15 2 0 4 -7 4 -15z"/>
<path d="M92 1400 c0 -14 2 -19 5 -12 2 6 2 18 0 25 -3 6 -5 1 -5 -13z"/>
<path d="M167 1343 c-4 -3 -7 -276 -7 -605 l0 -598 68 0 c37 -1 184 -3 328 -7
l261 -5 6 603 c3 332 3 607 1 611 -6 10 -648 11 -657 1z m305 -181 c-20 -1
-48 -5 -62 -9 -21 -5 -14 -9 35 -19 l60 -12 -45 -2 c-25 -1 -56 -6 -70 -11
l-25 -8 25 1 c14 0 45 -1 70 -2 l45 -2 -35 -10 -35 -11 35 -10 35 -10 -35 -8
c-19 -4 -38 -5 -41 -3 -4 2 -10 -2 -12 -8 -4 -10 -8 -10 -15 1 -8 11 -11 10
-15 -5 -3 -14 -5 -11 -6 8 -1 20 -5 26 -16 22 -10 -4 -15 0 -16 12 -1 11 -5 1
-9 -21 l-7 -40 -2 41 c0 23 -4 55 -7 71 -5 26 -2 31 18 37 12 4 41 7 63 6 22
-1 51 3 65 8 17 6 27 6 32 -2 5 -7 -5 -12 -30 -14z m133 1 c-3 -16 -9 -53 -14
-83 -8 -51 -9 -52 -10 -15 0 22 -5 54 -9 70 -11 38 -5 55 19 55 15 0 18 -5 14
-27z m-91 -148 c2 -7 -5 -11 -17 -10 -11 1 -23 7 -25 13 -4 14 36 11 42 -3z
m-30 -368 c-5 -32 -2 -47 10 -59 14 -14 14 -16 -4 -21 -11 -3 -20 -13 -20 -22
0 -9 -4 -14 -9 -10 -6 3 -21 -10 -34 -30 -23 -34 -24 -34 -41 -16 -16 18 -15
20 21 50 26 22 32 31 18 27 -79 -18 -75 -18 -75 10 0 25 2 26 35 20 22 -4 35
-3 35 4 0 5 -4 10 -8 10 -5 0 -17 6 -27 14 -18 13 -18 14 -1 31 17 17 19 17
43 -11 l24 -29 -5 38 c-4 34 -3 37 19 37 23 0 24 -3 19 -43z m21 -107 c10 -11
16 -20 13 -20 -3 0 -13 9 -23 20 -10 11 -16 20 -13 20 3 0 13 -9 23 -20z"/>
<path d="M350 1140 c0 -5 7 -10 15 -10 8 0 15 5 15 10 0 6 -7 10 -15 10 -8 0
-15 -4 -15 -10z"/>
<path d="M390 1070 c0 -5 9 -10 20 -10 11 0 20 5 20 10 0 6 -9 10 -20 10 -11
0 -20 -4 -20 -10z"/>
<path d="M2180 740 l0 -610 338 0 339 0 6 248 c4 136 7 410 7 610 l0 362 -345
0 -345 0 0 -610z m496 428 c-3 -17 -6 -48 -6 -70 0 -24 -4 -37 -10 -33 -5 3
-10 23 -10 43 0 20 -4 43 -9 51 -13 20 -4 37 20 38 19 2 20 -2 15 -29z m-122
12 c55 0 36 -13 -29 -20 -50 -5 -55 -4 -55 13 0 15 5 18 23 13 12 -3 40 -6 61
-6z m-91 -47 c-7 -2 -21 -2 -30 0 -10 3 -4 5 12 5 17 0 24 -2 18 -5z m100 -63
l-6 -60 29 0 c41 -1 11 -16 -43 -23 -38 -4 -43 -3 -43 14 0 14 7 19 26 19 25
0 26 2 20 39 -3 22 -9 46 -12 55 -4 12 0 16 15 16 19 0 20 -4 14 -60z m-146
18 c-3 -8 -6 -5 -6 6 -1 11 2 17 5 13 3 -3 4 -12 1 -19z m52 -7 c-15 -5 -22 6
-14 19 6 9 10 9 16 -1 5 -8 4 -15 -2 -18z m1 -35 c0 -2 -11 -6 -25 -8 -14 -3
-25 -1 -25 3 0 5 11 9 25 9 14 0 25 -2 25 -4z m166 -391 c26 -34 32 -44 16
-33 -18 12 -32 14 -60 7 -51 -12 -62 -11 -62 5 0 10 11 12 48 8 l47 -5 -19 21
c-35 40 -53 37 -113 -14 l-56 -48 44 56 c35 46 48 56 65 52 12 -3 25 0 29 6 4
6 10 8 14 3 4 -4 25 -30 47 -58z m-21 -65 l30 -8 -35 -1 c-19 -1 -45 -4 -57
-7 -17 -5 -23 -2 -23 10 0 17 31 20 85 6z m58 -69 c-21 -19 -51 -46 -68 -60
l-30 -26 25 29 25 29 -47 -6 c-39 -5 -48 -4 -48 9 0 12 9 13 49 8 47 -6 49 -6
77 34 22 31 32 38 42 29 11 -9 6 -18 -25 -46z m-182 -21 l53 -65 -45 40 c-24
22 -55 48 -68 57 -13 9 -20 21 -16 28 10 17 17 11 76 -60z m107 49 c33 -1 35
-2 12 -9 -44 -14 -80 -12 -80 6 0 11 5 14 16 10 9 -3 32 -6 52 -7z"/>
<path d="M1424 1068 c-58 -19 -127 -81 -156 -138 l-28 -55 0 -349 c-1 -191 2
-351 5 -354 3 -3 18 7 33 21 16 15 32 24 36 20 4 -4 6 128 6 294 -1 205 2 308
10 322 6 12 7 21 3 21 -4 0 -3 4 2 8 6 4 18 19 28 35 10 15 24 27 32 27 8 0
15 4 15 9 0 30 145 41 192 14 41 -23 88 -67 88 -82 0 -6 5 -11 12 -11 6 0 8
-3 5 -7 -4 -3 -2 -12 3 -19 7 -8 10 -128 8 -351 -2 -186 -1 -318 2 -293 l5 45
19 -28 c10 -15 22 -27 27 -27 5 0 9 153 9 348 0 343 0 348 -24 397 -46 100
-128 156 -236 161 -36 2 -79 -2 -96 -8z"/>
<path d="M1022 458 l3 -283 98 -3 97 -3 0 286 0 285 -100 0 -100 0 2 -282z"/>
<path d="M1794 726 c-3 -7 -4 -134 -2 -282 l3 -269 103 -3 102 -3 0 233 c0
128 -3 257 -6 286 l-7 52 -94 0 c-70 0 -95 -3 -99 -14z"/>
<path d="M1125 160 c-121 -5 -169 -10 -197 -23 -33 -15 -81 -17 -428 -17
l-390 0 0 -30 0 -30 368 -2 c202 0 378 0 391 1 13 1 41 13 62 27 36 23 47 24
182 24 130 0 146 2 161 19 10 11 16 23 15 28 -2 4 -76 6 -164 3z m-816 -89
c-15 -5 -22 6 -14 19 6 9 10 9 16 -1 5 -8 4 -15 -2 -18z m540 0 c-15 -5 -22 6
-14 19 6 9 10 9 16 -1 5 -8 4 -15 -2 -18z"/>
<path d="M1740 153 c0 -6 10 -19 22 -27 18 -13 51 -16 155 -16 126 0 136 -1
174 -26 l41 -25 381 1 c261 0 383 4 388 11 4 6 4 20 2 30 -5 18 -21 19 -395
19 -351 0 -392 2 -421 17 -40 22 -347 36 -347 16z m434 -61 c3 -5 -1 -9 -9 -9
-8 0 -12 4 -9 9 3 4 7 8 9 8 2 0 6 -4 9 -8z m76 -2 c0 -5 -5 -10 -11 -10 -5 0
-7 5 -4 10 3 6 8 10 11 10 2 0 4 -4 4 -10z m80 0 c0 -5 -7 -10 -16 -10 -8 0
-12 5 -9 10 3 6 10 10 16 10 5 0 9 -4 9 -10z m150 0 c0 -5 -5 -10 -11 -10 -5
0 -7 5 -4 10 3 6 8 10 11 10 2 0 4 -4 4 -10z m385 0 c3 -5 -1 -10 -10 -10 -9
0 -13 5 -10 10 3 6 8 10 10 10 2 0 7 -4 10 -10z m-148 -6 c-3 -3 -12 -4 -19
-1 -8 3 -5 6 6 6 11 1 17 -2 13 -5z"/>
<path d="M95 150 c-3 -6 1 -7 9 -4 18 7 21 14 7 14 -6 0 -13 -4 -16 -10z"/>
<path d="M1289 113 c-13 -16 -12 -17 4 -4 16 13 21 21 13 21 -2 0 -10 -8 -17
-17z"/>
<path d="M80 76 c0 -19 3 -37 8 -40 4 -2 6 13 4 35 -5 48 -12 51 -12 5z"/>
</g>
</svg>
